<?xml version="1.0" encoding="iso-8859-1"?>
<!-- Generator: Adobe Illustrator 19.0.0, SVG Export Plug-In . SVG Version: 6.00 Build 0)  -->
<svg version="1.1" id="Capa_1" xmlns="http://www.w3.org/2000/svg" xmlns:xlink="http://www.w3.org/1999/xlink" x="0px" y="0px"
	 viewBox="0 0 512 512" style="enable-background:new 0 0 512 512;" xml:space="preserve">
<g>
	<g>
		<path d="M262.348,475.317c-19.938-2.993-39.044-10.938-55.251-22.975c-12.318-9.148-27.556-14.189-42.901-14.189H37.535
			c-12.413,0-22.514-10.1-22.514-22.514V309.856c0-4.143-3.357-7.5-7.5-7.5c-4.143,0-7.5,3.357-7.5,7.5v105.785
			c0,20.686,16.829,37.514,37.514,37.514h126.66c12.146,0,24.207,3.988,33.958,11.23c18.176,13.498,39.604,22.408,61.968,25.766
			c4.079,0.613,7.913-2.192,8.53-6.304C269.267,479.751,266.445,475.932,262.348,475.317z"/>
	</g>
</g>
<g>
	<g>
		<path d="M486.338,347.057c33.888-14.784,34.546-63.317-0.018-78.445c8.998-8.376,13.68-19.666,13.68-31.353
			c0-24.399-20.735-43.489-43.022-42.766c-1.849-0.021-8.416-0.009-12.032-0.012c-4.143,0-7.5,3.358-7.5,7.5s3.357,7.5,7.5,7.5
			h11.541c17.353,0,31.585,15.596,27.948,33.359c-0.001,0.006-0.002,0.011-0.003,0.017c-2.597,12.643-13.812,22.181-27.211,22.181
			H350.665c-15.317,0-27.778-12.461-27.778-27.779c0-15.317,12.461-27.778,27.778-27.778c52.89-0.001,7.26,0,59.282,0
			c4.143,0,7.5-3.358,7.5-7.5s-3.357-7.5-7.5-7.5c-10.147,0-29.67,0-39.757,0c32.338-52.849,38.248-120.358,31.026-142.847
			c-13.349-41.585-69.792-45.064-81.357,9.439l-2.036,9.586c-5.94,27.962-4.532,60.236-39.164,80.114
			c-7.321,4.202-14.701,7.262-21.932,9.093c-17.146,4.343-35.153,13.147-50.711,24.79c-9.258,6.929-16.861,16.297-21.988,27.09
			c-5.325,11.21-16.785,18.454-29.195,18.454H34.831c-13.698,0-24.47,6.51-30.328,18.333c-5.075,10.24-4.481,18.043-4.481,26.322
			c0,4.143,3.357,7.5,7.5,7.5s7.5-3.357,7.5-7.5c0.155-5.39-1.004-12.073,3.102-20.017c3.351-6.484,8.815-9.637,16.708-9.637
			c123.371-0.838,122.164,1.913,135.184-2.533c-1.479,5.148-2.778,10.936-3.655,17.314c-0.564,4.104,2.305,7.888,6.408,8.451
			c4.1,0.566,7.887-2.302,8.451-6.408c1.794-13.042,6-26.47,13.353-38.475c4.027-6.211,7.228-17.001,20.432-26.883
			c14.01-10.484,30.135-18.389,45.406-22.258c8.556-2.167,17.208-5.742,25.715-10.625c35.612-20.44,40.484-53.576,43.396-73.373
			c1.783-12.102,3.594-19.248,5.012-26.221c9.18-43.275,52.216-34.2,54.184,2.358c0.388,7.178,2.587,70.736-36.381,127.933h-1.669
			c-41.766,0-58.863,54.217-24.161,78.058c-11.233,7.717-18.619,20.65-18.619,35.279c0,14.63,7.385,27.561,18.619,35.279
			c-24.839,17.065-24.791,53.527,0,70.557c-21.038,14.453-24.856,43.761-8.33,63.059h-21.938c-4.136,0-7.489,3.353-7.489,7.489
			s3.353,7.489,7.489,7.489v0.022c23.05,0,131.341-0.002,154.317-0.002c40.335,0,57.924-50.411,27.194-75.812
			C503.037,402.033,507.983,367.199,486.338,347.057z M322.886,307.818c0-15.317,12.461-27.778,27.778-27.778
			c18.687,0,105.692,0,117.829,0c15.385,0,28.674,12.362,28.505,28.082c-0.019,1.872-12.595,27.474-27.77,27.474
			c-13.912,0-97.847,0-118.564,0C335.347,335.596,322.886,323.134,322.886,307.818z M478.305,447.873
			c0.613,16.193-12.975,28.839-28.486,28.839h-99.154c-15.317,0-27.778-12.461-27.778-27.779c0-15.317,12.461-27.778,27.778-27.778
			h99.889C465.439,421.155,477.752,432.969,478.305,447.873z M457.223,406.154c-15.795,0-96.953,0-106.559,0
			c-15.317,0-27.778-12.461-27.778-27.778c0-15.318,12.461-27.779,27.778-27.779h106.559c15.317,0,27.778,12.461,27.778,27.779
			C485.001,393.693,472.54,406.154,457.223,406.154z"/>
	</g>
</g>
<g>
</g>
<g>
</g>
<g>
</g>
<g>
</g>
<g>
</g>
<g>
</g>
<g>
</g>
<g>
</g>
<g>
</g>
<g>
</g>
<g>
</g>
<g>
</g>
<g>
</g>
<g>
</g>
<g>
</g>
</svg>
